<mxfile host="Electron" modified="2024-09-10T16:42:13.590Z" agent="Mozilla/5.0 (X11; Linux x86_64) AppleWebKit/537.36 (KHTML, like Gecko) draw.io/24.4.0 Chrome/122.0.6261.156 Electron/29.4.0 Safari/537.36" etag="k_xQOLY5j0PKLvnxfxbV" version="24.3.1" type="device">
  <diagram id="_HsI6II4H_Zj1uRO8Jza" name="Page-1">
    <mxGraphModel dx="236" dy="180" grid="1" gridSize="10" guides="1" tooltips="1" connect="1" arrows="1" fold="1" page="1" pageScale="1" pageWidth="850" pageHeight="1100" math="0" shadow="0">
      <root>
        <mxCell id="0" />
        <mxCell id="1" parent="0" />
        <mxCell id="Vc3Sg6nF2ZaE7zWmXiYC-1" value="NixOS" style="rounded=0;whiteSpace=wrap;html=1;fontFamily=mono;fillColor=#d5e8d4;strokeColor=#82b366;" parent="1" vertex="1">
          <mxGeometry x="80" y="40" width="80" height="120" as="geometry" />
        </mxCell>
        <mxCell id="Vc3Sg6nF2ZaE7zWmXiYC-2" value="Nix" style="rounded=0;whiteSpace=wrap;html=1;fontFamily=mono;fillColor=#d5e8d4;strokeColor=#82b366;" parent="1" vertex="1">
          <mxGeometry x="160" y="40" width="80" height="120" as="geometry" />
        </mxCell>
        <mxCell id="Vc3Sg6nF2ZaE7zWmXiYC-5" value="&lt;font style=&quot;font-size: 10px;&quot;&gt;nix-shell&lt;/font&gt;" style="rounded=0;whiteSpace=wrap;html=1;fontFamily=mono;fillColor=#dae8fc;strokeColor=#6c8ebf;" parent="1" vertex="1">
          <mxGeometry x="163" y="143" width="75" height="15" as="geometry" />
        </mxCell>
        <mxCell id="Vc3Sg6nF2ZaE7zWmXiYC-6" value="&lt;font style=&quot;font-size: 10px;&quot;&gt;nix-build&lt;/font&gt;" style="rounded=0;whiteSpace=wrap;html=1;fontFamily=mono;fillColor=#dae8fc;strokeColor=#6c8ebf;" parent="1" vertex="1">
          <mxGeometry x="163" y="128" width="75" height="15" as="geometry" />
        </mxCell>
        <mxCell id="Vc3Sg6nF2ZaE7zWmXiYC-8" value="" style="rounded=0;whiteSpace=wrap;html=1;fontFamily=mono;fillColor=#f8cecc;strokeColor=#b85450;" parent="1" vertex="1">
          <mxGeometry x="231" y="139" width="5" height="17" as="geometry" />
        </mxCell>
        <mxCell id="Vc3Sg6nF2ZaE7zWmXiYC-9" value="" style="endArrow=classic;html=1;rounded=1;fontFamily=mono;entryX=0.5;entryY=1;entryDx=0;entryDy=0;" parent="1" source="Vc3Sg6nF2ZaE7zWmXiYC-10" target="Vc3Sg6nF2ZaE7zWmXiYC-8" edge="1">
          <mxGeometry width="50" height="50" relative="1" as="geometry">
            <mxPoint x="130" y="200" as="sourcePoint" />
            <mxPoint x="180" y="150" as="targetPoint" />
            <Array as="points">
              <mxPoint x="230" y="180" />
            </Array>
          </mxGeometry>
        </mxCell>
        <mxCell id="Vc3Sg6nF2ZaE7zWmXiYC-10" value="今天介绍的内容" style="text;html=1;strokeColor=none;fillColor=none;align=center;verticalAlign=middle;whiteSpace=wrap;rounded=0;fontFamily=mono;" parent="1" vertex="1">
          <mxGeometry x="110" y="180" width="100" height="20" as="geometry" />
        </mxCell>
        <mxCell id="l33c9FAP9Wb5fEfiYWvJ-1" value="&lt;font style=&quot;font-size: 10px;&quot;&gt;...&lt;/font&gt;" style="rounded=0;whiteSpace=wrap;html=1;fontFamily=mono;fillColor=#dae8fc;strokeColor=#6c8ebf;" vertex="1" parent="1">
          <mxGeometry x="163" y="113" width="75" height="15" as="geometry" />
        </mxCell>
      </root>
    </mxGraphModel>
  </diagram>
</mxfile>
